# Blender v2.74 (sub 0) OBJ File: ''
# www.blender.org
mtllib creek.mtl
o Plane
v -470.588287 152.330414 386.191528
v -463.321533 143.956482 375.584473
v -480.775940 152.330414 371.655365
v -473.509186 143.956482 361.048309
v -456.240692 137.927246 366.421600
v -464.932892 137.927246 350.080597
v -445.099152 134.447632 365.930054
v -445.319366 134.447632 345.819092
v -427.591858 134.447632 368.788177
v -425.081818 134.447632 348.832397
v -416.992279 133.741058 375.100922
v -406.883484 133.741058 355.660431
v -396.302521 125.968842 394.113129
v -386.193726 125.968842 374.672638
v -386.731384 118.638596 407.639740
v -366.407776 118.638596 399.450073
v -387.098969 114.124840 427.056976
v -365.201416 114.124840 427.842957
v -375.421600 108.660843 456.594330
v -354.936951 108.660843 443.799622
v -342.481934 102.246590 476.758636
v -332.116211 102.246590 457.453888
v -325.238037 100.821190 487.332520
v -311.515533 100.821190 461.776276
v -322.777039 100.821190 504.275726
v -297.872437 100.821190 494.353149
v -308.506775 100.821190 529.247314
v -291.609985 100.821190 508.433960
v -295.063416 100.821190 540.734131
v -268.013916 100.821190 507.414795
v -279.826660 100.821190 549.177856
v -251.042557 100.821190 534.400024
v -283.170044 100.821190 566.224670
v -253.709961 100.821190 572.452148
v -305.209625 100.821190 589.766968
v -275.749542 100.821190 595.994385
v -325.802277 100.821190 610.972351
v -300.237823 100.821190 626.882568
v -356.357147 100.821190 629.505615
v -330.792694 100.821190 645.415894
v -379.398529 100.821190 655.051514
v -353.834076 100.821190 670.961792
v -390.400299 100.821190 658.488342
v -388.915070 100.821190 688.562744
v -421.456055 100.821190 655.482910
v -419.970825 100.821190 685.557373
v -450.508240 100.821190 654.982056
v -449.022980 100.821190 685.056458
v -479.961029 100.821190 669.795410
v -465.652924 100.821190 696.289856
v -500.802490 100.821190 685.418579
v -493.899628 100.821190 714.727783
v -533.360962 100.821190 686.921265
v -526.458069 100.821190 716.230469
v -561.411316 100.821190 694.935669
v -554.508423 100.821190 724.244873
v -588.443970 100.821190 700.556396
v -589.587341 100.821190 730.645752
v -618.497925 100.821190 698.051880
v -619.641296 100.821190 728.141296
v -648.759033 100.821190 691.095337
v -649.902405 100.821190 721.184692
v -683.889771 97.092209 686.921387
v -685.033081 97.092209 717.010742
v -717.886841 92.381927 691.120850
v -709.118164 92.381935 713.007996
v -743.278320 92.381927 702.947021
v -732.080200 92.381927 730.898438
v -764.148071 91.188065 709.555725
v -754.953491 91.188057 732.505920
v -797.539673 67.065750 717.903625
v -786.341431 67.065750 745.855042
v -837.468750 61.849182 740.361572
v -813.195557 61.849182 758.179932
v -854.043640 61.849182 753.928101
v -829.770447 61.849182 771.746460
vn 0.467600 0.820900 -0.327700
vn 0.434700 0.852400 -0.290400
vn 0.419700 0.865400 -0.273700
vn 0.300300 0.942900 -0.143700
vn 0.297600 0.944200 -0.140800
vn 0.102500 0.994400 -0.025100
vn 0.105400 0.994100 -0.025800
vn 0.024100 0.999700 0.007700
vn 0.019500 0.999800 0.006200
vn 0.154000 0.985100 0.076200
vn 0.139700 0.987800 0.068100
vn 0.215400 0.959600 0.180900
vn 0.225800 0.960600 0.161800
vn 0.110700 0.973400 0.200400
vn 0.116300 0.972600 0.201400
vn 0.043500 0.980000 0.194000
vn 0.047800 0.979100 0.197600
vn 0.096000 0.979700 0.175800
vn 0.106100 0.980200 0.167300
vn 0.101000 0.991400 0.083400
vn 0.099700 0.991600 0.081700
vn 0.023400 0.999600 0.012500
vn 0.036700 0.999100 0.019700
vn 0.000000 1.000000 0.000000
vn -0.057300 0.998400 -0.002200
vn -0.048200 0.998800 -0.001800
vn -0.131800 0.991200 0.009300
vn -0.130800 0.991400 0.008800
vn -0.074600 0.997100 0.010900
vn -0.085400 0.996200 0.012500
vn -0.025500 0.999600 0.010200
vn -0.025100 0.999600 0.010000
vn -0.320000 0.938700 0.128200
vn -0.283900 0.952100 0.113700
vn -0.334200 0.929700 0.155000
vn -0.328200 0.932100 0.153200
vn -0.042700 0.998500 0.033100
vn -0.067400 0.996300 0.052300
usemtl None
s 1
f 1//1 2//2 4//3 3//1
f 4//3 2//2 5//4 6//5
f 6//5 5//4 7//6 8//7
f 8//7 7//6 9//8 10//9
f 10//9 9//8 11//10 12//11
f 12//11 11//10 13//12 14//13
f 14//13 13//12 15//14 16//15
f 16//15 15//14 17//16 18//17
f 18//17 17//16 19//18 20//19
f 20//19 19//18 21//20 22//21
f 22//21 21//20 23//22 24//23
f 24//23 23//22 25//24 26//24
f 26//24 25//24 27//24 28//24
f 28//24 27//24 29//24 30//24
f 30//24 29//24 31//24 32//24
f 32//24 31//24 33//24 34//24
f 34//24 33//24 35//24 36//24
f 36//24 35//24 37//24 38//24
f 38//24 37//24 39//24 40//24
f 40//24 39//24 41//24 42//24
f 42//24 41//24 43//24 44//24
f 44//24 43//24 45//24 46//24
f 46//24 45//24 47//24 48//24
f 48//24 47//24 49//24 50//24
f 50//24 49//24 51//24 52//24
f 52//24 51//24 53//24 54//24
f 54//24 53//24 55//24 56//24
f 56//24 55//24 57//24 58//24
f 58//24 57//24 59//24 60//24
f 60//24 59//24 61//25 62//26
f 62//26 61//25 63//27 64//28
f 64//28 63//27 65//29 66//30
f 66//30 65//29 67//31 68//32
f 68//32 67//31 69//33 70//34
f 70//34 69//33 71//35 72//36
f 72//36 71//35 73//37 74//38
f 74//38 73//37 75//24 76//24
