# 3ds Max Wavefront OBJ Exporter v0.97b - (c)2007 guruware
# File Created: 23.10.2015 21:01:46

mtllib lavicka.mtl

#
# object Circle
#

v  0.000005 1.615124 -1.309855
v  -0.463098 1.615124 -1.118032
v  -0.654922 1.615124 -0.654932
v  0.654929 1.615124 -0.654932
v  -0.463101 0.000000 -1.118026
v  -0.654923 0.000000 -0.654925
v  -0.463101 0.000000 -0.191824
v  0.000000 0.000000 -0.000000
v  0.654922 0.000000 -0.654925
v  0.463102 0.000000 -1.118026
v  0.958707 0.000007 -8.992174
v  1.150528 0.000007 -8.529072
v  0.958707 0.000007 -8.065971
v  0.495607 0.000007 -7.874150
v  0.032506 0.000007 -8.065971
v  -0.159319 0.000007 -8.529072
v  0.032503 0.000007 -8.992174
v  0.495604 0.000007 -9.183998
v  1.150532 1.615131 -8.529079
v  0.958709 1.615131 -8.065977
v  0.032507 1.615131 -8.065977
v  0.032507 1.615131 -8.992182
v  0.495607 1.615131 -9.184004
v  1.616890 1.894672 -9.448330
v  1.578717 1.498810 -9.448330
v  -0.531415 1.483236 -9.448330
v  -0.591200 1.857080 -9.448328
v  1.041618 1.907761 0.542356
v  -1.106692 1.496321 0.542356
v  -1.166475 1.870160 0.542356
v  -0.463097 1.615124 -0.191830
v  0.463105 1.615124 -0.191830
v  0.463102 0.000000 -0.191824
v  0.463105 1.615124 -1.118032
v  0.000000 0.000000 -1.309849
v  0.000005 1.615124 -0.000007
v  0.958709 1.615131 -8.992182
v  0.495608 1.615131 -7.874155
v  -0.159317 1.615131 -8.529079
v  1.003442 1.511897 0.542356
# 40 vertices

vn -0.000001 -0.000004 -1.000000
vn 0.000001 -0.000004 -1.000000
vn 0.707107 -0.000005 -0.707107
vn 0.707109 -0.000004 -0.707105
vn -0.707108 -0.000001 -0.707105
vn -0.707105 -0.000001 -0.707108
vn -1.000000 0.000003 0.000001
vn -1.000000 0.000001 -0.000000
vn -0.707107 0.000005 0.707106
vn -0.707106 0.000004 0.707108
vn -0.000001 0.000004 1.000000
vn 0.000001 0.000004 1.000000
vn 0.707107 0.000000 0.707106
vn 0.707107 0.000001 0.707106
vn 1.000000 -0.000003 0.000000
vn 1.000000 -0.000003 -0.000002
vn 1.000000 -0.000002 0.000002
vn 0.707109 -0.000004 -0.707104
vn 0.707106 -0.000004 -0.707107
vn 1.000000 -0.000002 -0.000002
vn 0.707107 0.000001 0.707107
vn 0.707107 0.000002 0.707107
vn 0.000000 0.000003 1.000000
vn -0.707106 0.000003 0.707108
vn -0.707104 0.000003 0.707109
vn -1.000000 0.000002 0.000003
vn -1.000000 0.000001 -0.000001
vn -0.707106 -0.000002 -0.707108
vn -0.707109 -0.000001 -0.707104
vn -0.000002 -0.000003 -1.000000
vn 0.993744 -0.095831 0.057346
vn 0.007381 -0.999971 0.001735
vn -0.985873 -0.157658 -0.056561
vn -0.017024 0.999852 -0.002290
vn -0.000000 0.000002 -1.000000
vn -0.000000 0.000001 1.000000
# 36 vertex normals

vt 0.558998 0.320284 0.000000
vt 0.558997 0.603310 0.000000
vt 0.471160 0.603310 0.000000
vt 0.471160 0.320284 0.000000
vt 0.646836 0.320284 0.000000
vt 0.646835 0.603310 0.000000
vt 0.734674 0.320284 0.000000
vt 0.734673 0.603310 0.000000
vt 0.031972 0.320284 0.000000
vt 0.119809 0.320284 0.000000
vt 0.119809 0.603310 0.000000
vt 0.031971 0.603310 0.000000
vt 0.207646 0.320284 0.000000
vt 0.207647 0.603310 0.000000
vt 0.295484 0.320284 0.000000
vt 0.295485 0.603310 0.000000
vt 0.383321 0.320284 0.000000
vt 0.383322 0.603310 0.000000
vt 0.387794 0.020596 0.000000
vt 0.475632 0.020596 0.000000
vt 0.475633 0.303623 0.000000
vt 0.387796 0.303623 0.000000
vt 0.299957 0.020596 0.000000
vt 0.299958 0.303623 0.000000
vt 0.212120 0.303623 0.000000
vt 0.212120 0.020596 0.000000
vt 0.124282 0.303623 0.000000
vt 0.124282 0.020596 0.000000
vt 0.036445 0.020596 0.000000
vt 0.036444 0.303623 0.000000
vt 0.739147 0.020596 0.000000
vt 0.739145 0.303623 0.000000
vt 0.651307 0.303623 0.000000
vt 0.651309 0.020596 0.000000
vt 0.563470 0.303623 0.000000
vt 0.563471 0.020596 0.000000
vt 0.036641 0.049435 0.000000
vt 0.036465 0.021391 0.000000
vt 0.738949 0.020596 0.000000
vt 0.739125 0.048640 0.000000
vt 0.013391 0.761406 0.000000
vt 0.962536 0.760163 0.000000
vt 0.974302 0.959955 0.000000
vt 0.025157 0.961202 0.000000
vt 0.036684 0.047838 0.000000
vt 0.738906 0.022194 0.000000
vt 0.956207 0.771896 0.000000
vt 0.955406 0.965806 0.000000
vt 0.015346 0.957947 0.000000
vt 0.016147 0.764037 0.000000
vt 0.279286 0.690226 0.000000
vt 0.282956 0.652169 0.000000
vt 0.485814 0.650672 0.000000
vt 0.491561 0.686612 0.000000
vt 0.491561 0.690226 0.000000
vt 0.279286 0.686611 0.000000
vt 0.285033 0.650672 0.000000
vt 0.487891 0.652170 0.000000
# 58 texture coords

g Circle
usemtl 01___Default
s 2
f -6/-58/-36 -40/-57/-35 -7/-56/-34 -31/-55/-33 
f -36/-54/-32 -39/-53/-31 -40/-57/-35 -6/-58/-36 
f -35/-52/-30 -38/-51/-29 -39/-53/-31 -36/-54/-32 
f -35/-50/-30 -34/-49/-28 -10/-48/-27 -38/-47/-29 
f -33/-46/-26 -5/-45/-25 -10/-48/-27 -34/-49/-28 
f -8/-44/-24 -9/-43/-23 -5/-45/-25 -33/-46/-26 
f -8/-44/-24 -32/-42/-22 -37/-41/-21 -9/-43/-23 
f -32/-42/-22 -31/-55/-33 -7/-56/-34 -37/-41/-21 
s 1
f -29/-40/-20 -30/-39/-19 -4/-38/-18 -22/-37/-17 
f -28/-36/-16 -29/-40/-20 -22/-37/-17 -21/-35/-15 
f -28/-36/-16 -21/-35/-15 -3/-34/-14 -27/-33/-14 
f -27/-33/-14 -3/-34/-14 -20/-32/-13 -26/-31/-12 
f -25/-30/-11 -26/-31/-12 -20/-32/-13 -2/-29/-10 
f -25/-28/-11 -2/-27/-10 -19/-26/-9 -24/-25/-8 
f -24/-25/-8 -19/-26/-9 -18/-24/-36 -23/-23/-7 
f -23/-23/-7 -18/-24/-36 -4/-38/-18 -30/-39/-19 
s off
f -13/-22/-6 -1/-21/-6 -16/-20/-6 -17/-19/-6 
f -12/-18/-5 -15/-17/-5 -16/-16/-5 -1/-15/-5 
f -11/-19/-4 -14/-14/-4 -15/-21/-4 -12/-13/-4 
f -17/-12/-3 -14/-11/-3 -11/-10/-3 -13/-9/-3 
f -17/-8/-2 -16/-7/-2 -15/-6/-2 -14/-5/-2 
f -13/-4/-1 -11/-3/-1 -12/-2/-1 -1/-1/-1 
# 22 polygons

