# Blender v2.74 (sub 0) OBJ File: ''
# www.blender.org
o Cube.001_Cube.002
v 0.498732 9.112909 -1.524630
v 1.021365 9.112909 -1.048586
v 1.431546 9.112909 -0.424696
v 1.333035 9.112909 0.286586
v 0.884758 9.112909 0.987924
v 0.314736 9.112909 1.420559
v -0.456335 9.112909 1.408885
v -0.941798 9.112909 0.976250
v -1.390481 9.112909 0.263572
v -1.808559 9.112909 -0.522018
v -1.253495 9.112909 -1.192350
v -0.204054 9.112909 -1.594085
v 0.478836 11.222472 -1.507113
v 1.108557 11.222472 -1.135778
v 1.550652 11.222472 -0.456610
v 1.452141 11.222472 0.318500
v 0.941743 11.222472 0.991193
v 0.274164 11.222472 1.583686
v -0.472927 11.222472 1.659944
v -0.971389 11.222472 1.067451
v -1.509587 11.222472 0.295486
v -1.927665 11.222472 -0.553933
v -1.343242 11.222472 -1.193866
v -0.290334 11.222472 -1.490892
v 0.294322 12.768166 -1.008107
v 0.782061 12.768166 -0.805896
v 1.189963 12.768166 -0.322214
v 1.140708 12.768166 0.235052
v 0.683550 12.768166 0.679285
v 0.160508 12.768166 1.188329
v -0.381123 12.768166 1.398368
v -0.735048 12.768166 0.889323
v -1.198154 12.768166 0.212038
v -1.407193 12.768166 -0.382382
v -0.908773 12.768166 -0.792102
v -0.261251 12.768166 -0.957159
v 0.100401 13.638294 -0.432599
v 0.000000 0.000000 0.000000
v -0.125651 3.905533 -1.066711
v -0.486649 3.905533 -0.667377
v -0.668794 3.905533 -0.189392
v -0.668794 3.905533 0.164677
v -0.491759 3.905533 0.471310
v -0.185127 3.905533 0.648344
v 0.168942 3.905533 0.648344
v 0.475575 3.905533 0.471310
v 0.652610 3.905533 0.164677
v 0.652610 3.905533 -0.189392
v 0.524831 3.905533 -0.546973
v 0.272563 3.905533 -0.946308
v -0.140225 6.509221 -1.355873
v -0.870072 6.509221 -0.929863
v -1.238676 6.509221 -0.355705
v -1.029637 6.509221 0.214124
v -0.716779 6.509221 0.723780
v -0.299591 6.509221 0.964643
v 0.262979 6.509221 0.970480
v 0.680167 6.509221 0.729617
v 0.992822 6.509221 0.225631
v 1.042078 6.509221 -0.307044
v 0.797726 6.509221 -0.823254
v 0.434903 6.509221 -1.286417
v 0.126528 1.301844 -0.569629
v 0.345709 1.301844 -0.355933
v 0.473728 1.301844 -0.134198
v 0.473728 1.301844 0.121841
v 0.345709 1.301844 0.343576
v 0.123973 1.301844 0.471595
v -0.132065 1.301844 0.471595
v -0.353801 1.301844 0.343576
v -0.481820 1.301844 0.121840
v -0.481820 1.301844 -0.134198
v -0.351246 1.301844 -0.441609
v -0.126955 1.301844 -0.655304
v 0.306472 13.638294 -0.313624
v 0.537049 13.638294 -0.111584
v 0.537049 13.638294 0.126367
v 0.306472 13.638294 0.336468
v 0.050715 13.638294 0.588752
v -0.238391 13.638294 0.713906
v -0.394776 13.638294 0.461623
v -0.589545 13.638294 0.110233
v -0.589545 13.638294 -0.127718
v -0.343620 13.638294 -0.313624
v -0.137549 13.638294 -0.432599
v -0.032723 13.770449 0.033748
vt 0.345617 0.611629
vt 0.285092 0.607549
vt 0.290612 0.447273
vt 0.347631 0.448682
vt 0.209688 0.999922
vt 0.216649 0.950332
vt 0.230935 0.999922
vt 0.245695 0.606896
vt 0.204600 0.606867
vt 0.212719 0.440438
vt 0.252023 0.445212
vt 0.437853 0.843272
vt 0.479169 0.752532
vt 0.527624 0.768548
vt 0.475649 0.860173
vt 0.292933 0.801751
vt 0.288478 0.716066
vt 0.339835 0.717195
vt 0.329493 0.799323
vt 0.159526 0.608029
vt 0.173737 0.435206
vt 0.214305 0.720889
vt 0.250655 0.716569
vt 0.113433 0.607561
vt 0.136691 0.428136
vt 0.172761 0.728147
vt 0.055335 0.605866
vt 0.094676 0.417950
vt 0.128141 0.739345
vt 0.000078 0.603334
vt 0.059987 0.407383
vt 0.072363 0.756341
vt 0.605498 0.615634
vt 0.545784 0.619200
vt 0.512224 0.427079
vt 0.553309 0.414787
vt 0.006960 0.776752
vt 0.500026 0.617397
vt 0.477406 0.434791
vt 0.586122 0.791186
vt 0.445201 0.615817
vt 0.435153 0.441688
vt 0.393607 0.616064
vt 0.393767 0.448359
vt 0.427588 0.735382
vt 0.380346 0.721761
vt 0.356674 0.890690
vt 0.393882 0.817754
vt 0.387678 0.907022
vt 0.209792 0.250303
vt 0.184847 0.243470
vt 0.244240 0.076107
vt 0.258936 0.083752
vt 0.253224 0.884724
vt 0.231277 0.805227
vt 0.261298 0.801932
vt 0.272535 0.880125
vt 0.227458 0.890276
vt 0.196000 0.812889
vt 0.208971 0.899500
vt 0.165564 0.828731
vt 0.189734 0.919486
vt 0.131377 0.857113
vt 0.166644 0.941625
vt 0.081925 0.893036
vt 0.410291 0.918611
vt 0.502310 0.896963
vt 0.421096 0.944307
vt 0.258597 0.938812
vt 0.258451 0.959995
vt 0.247835 0.978315
vt 0.363823 0.799416
vt 0.290991 0.095080
vt 0.306433 0.097892
vt 0.299782 0.265334
vt 0.269847 0.262710
vt 0.339343 0.263028
vt 0.324018 0.095056
vt 0.427647 0.247375
vt 0.402209 0.253784
vt 0.357693 0.084544
vt 0.372565 0.077185
vt 0.376760 0.258550
vt 0.342743 0.089953
vt 0.292166 0.878429
vt 0.160107 0.235112
vt 0.136057 0.225351
vt 0.214715 0.053935
vt 0.229623 0.066354
vt 0.477612 0.229865
vt 0.452799 0.239410
vt 0.387407 0.067664
vt 0.402311 0.055626
vt 0.308950 0.000078
vt 0.273762 0.089512
vt 0.236433 0.256338
vt 0.311800 0.881506
vt 0.338074 0.882961
vt 0.248222 0.920338
vt 0.230235 0.899788
vt 0.167308 0.942207
vt 0.156219 0.968069
vt 0.178454 0.982504
vn -0.591600 -0.089500 -0.801200
vn -0.150200 -0.044400 -0.987600
vn -0.188300 -0.123700 -0.974300
vn -0.688100 -0.165400 -0.706500
vn -0.554300 0.801300 0.225100
vn 0.006400 0.999800 -0.018100
vn -0.513100 0.835600 -0.196100
vn 0.385100 -0.048400 -0.921600
vn 0.763100 -0.079100 -0.641300
vn 0.831700 -0.129800 -0.539800
vn 0.489800 -0.120000 -0.863500
vn -0.767700 0.353700 0.534300
vn -0.791700 0.062600 0.607600
vn -0.351600 0.059200 0.934300
vn -0.291500 0.399000 0.869400
vn -0.157700 0.433300 -0.887300
vn -0.148900 0.168300 -0.974400
vn -0.529000 0.155000 -0.834300
vn -0.430200 0.468300 -0.771800
vn 0.972300 -0.100300 -0.211000
vn 0.972300 -0.143700 -0.184100
vn 0.686100 0.121300 -0.717300
vn 0.271700 0.158800 -0.949200
vn 0.933900 -0.089900 0.345900
vn 0.940700 -0.132400 0.312400
vn 0.966100 0.093300 -0.240700
vn 0.724000 -0.083700 0.684700
vn 0.704100 -0.129300 0.698200
vn 0.922500 0.085200 0.376500
vn 0.324400 -0.114000 0.939000
vn 0.272500 -0.144700 0.951200
vn 0.724000 0.097600 0.682800
vn -0.349000 -0.127400 0.928400
vn -0.288700 -0.148200 0.945900
vn 0.402200 0.080200 0.912000
vn -0.755300 -0.096800 0.648200
vn -0.712800 -0.134900 0.688300
vn -0.868000 -0.093300 0.487700
vn -0.896100 -0.143500 0.419900
vn -0.985300 -0.125800 -0.115200
vn -0.974400 -0.196000 -0.109900
vn -0.866500 0.081800 0.492500
vn -0.977800 0.133200 -0.161500
vn -0.822200 0.397900 0.406900
vn -0.502700 0.802400 0.321600
vn 0.975900 -0.111400 -0.187400
vn 0.955500 -0.102400 0.276600
vn 0.944700 -0.208500 0.253000
vn 0.950900 -0.211900 -0.225700
vn 0.333900 0.817400 -0.469300
vn 0.560900 0.440300 -0.701100
vn 0.178000 0.440700 -0.879800
vn 0.117000 0.790100 -0.601600
vn 0.551400 0.807600 -0.208700
vn 0.866600 0.427000 -0.258100
vn 0.558900 0.781700 0.276600
vn 0.843300 0.389500 0.370300
vn 0.425100 0.789400 0.442800
vn 0.657300 0.369900 0.656600
vn 0.345800 0.789100 0.507600
vn 0.458200 0.387100 0.800100
vn -0.198600 0.793000 0.575900
vn -0.127800 0.778900 -0.613900
vn -0.275600 0.818700 -0.503700
vn -0.847000 0.492400 -0.200100
vn 0.526000 -0.264800 -0.808200
vn -0.229900 -0.292500 -0.928200
vn -0.230800 -0.143400 -0.962400
vn 0.551400 -0.139500 -0.822500
vn -0.795300 -0.130400 -0.592000
vn -0.807100 -0.236100 -0.541100
vn -0.701000 -0.101400 0.705900
vn -0.942000 -0.111900 0.316400
vn -0.943900 -0.212400 0.252800
vn -0.691300 -0.210500 0.691200
vn -0.978600 -0.134400 -0.155400
vn -0.957900 -0.215200 -0.190000
vn 0.700900 -0.098500 0.706300
vn 0.255700 -0.099100 0.961600
vn 0.253100 -0.207700 0.944900
vn 0.691700 -0.207600 0.691700
vn -0.258300 -0.099900 0.960800
vn -0.253200 -0.208800 0.944600
vn 0.008100 -0.999400 0.033900
vn 0.806000 -0.225900 -0.547000
vn 0.860000 -0.120600 -0.495700
s 1
f 11/1/1 12/2/2 51/3/3 52/4/4
f 82/5/5 86/6/6 83/7/7
f 1/8/8 2/9/9 61/10/10 62/11/11
f 32/12/12 20/13/13 19/14/14 31/15/15
f 36/16/16 24/17/17 23/18/18 35/19/19
f 2/9/9 3/20/20 60/21/21 61/10/10
f 14/22/22 2/9/9 1/8/8 13/23/23
f 3/20/20 4/24/24 59/25/25 60/21/21
f 15/26/26 3/20/20 2/9/9 14/22/22
f 4/24/24 5/27/27 58/28/28 59/25/25
f 16/29/29 4/24/24 3/20/20 15/26/26
f 5/27/27 6/30/30 57/31/31 58/28/28
f 17/32/32 5/27/27 4/24/24 16/29/29
f 6/33/30 7/34/33 56/35/34 57/36/31
f 18/37/35 6/30/30 5/27/27 17/32/32
f 7/34/33 8/38/36 55/39/37 56/35/34
f 19/14/14 7/34/33 6/33/30 18/40/35
f 8/38/36 9/41/38 54/42/39 55/39/37
f 20/13/13 8/38/36 7/34/33 19/14/14
f 9/41/38 10/43/40 53/44/41 54/42/39
f 21/45/42 9/41/38 8/38/36 20/13/13
f 10/43/40 11/1/1 52/4/4 53/44/41
f 22/46/43 10/43/40 9/41/38 21/45/42
f 12/2/2 24/17/17 13/23/23 1/8/8
f 82/47/5 33/48/44 32/12/12 81/49/45
f 23/18/18 11/1/1 10/43/40 22/46/43
f 48/50/46 47/51/47 66/52/48 65/53/49
f 62/11/11 51/3/3 12/2/2 1/8/8
f 75/54/50 26/55/51 25/56/52 37/57/53
f 76/58/54 27/59/55 26/55/51 75/54/50
f 77/60/56 28/61/57 27/59/55 76/58/54
f 78/62/58 29/63/59 28/61/57 77/60/56
f 79/64/60 30/65/61 29/63/59 78/62/58
f 80/66/62 31/15/15 30/67/61 79/68/60
f 81/49/45 32/12/12 31/15/15 80/66/62
f 37/69/53 85/70/63 86/6/6
f 24/17/17 36/16/16 25/56/52 13/23/23
f 83/7/7 86/6/6 84/71/64
f 33/48/44 21/45/42 20/13/13 32/12/12
f 34/72/65 22/46/43 21/45/42 33/48/44
f 63/73/66 74/74/67 39/75/68 50/76/69
f 40/77/70 39/75/68 74/74/67 73/78/71
f 43/79/72 42/80/73 71/81/74 70/82/75
f 42/80/73 41/83/76 72/84/77 71/81/74
f 36/16/16 85/85/63 37/57/53 25/56/52
f 46/86/78 45/87/79 68/88/80 67/89/81
f 45/90/79 44/91/82 69/92/83 68/93/80
f 38/94/84 64/95/85 65/53/49
f 38/94/84 65/53/49 66/52/48
f 38/94/84 66/52/48 67/89/81
f 38/94/84 67/89/81 68/88/80
f 38/94/84 68/93/80 69/92/83
f 38/94/84 69/92/83 70/82/75
f 38/94/84 70/82/75 71/81/74
f 38/94/84 71/81/74 72/84/77
f 38/94/84 72/84/77 73/78/71
f 39/75/68 40/77/70 52/4/4 51/3/3
f 47/51/47 46/86/78 67/89/81 66/52/48
f 40/77/70 41/83/76 53/44/41 52/4/4
f 63/73/66 38/94/84 74/74/67
f 41/83/76 42/80/73 54/42/39 53/44/41
f 42/80/73 43/79/72 55/39/37 54/42/39
f 43/79/72 44/91/82 56/35/34 55/39/37
f 44/91/82 45/90/79 57/36/31 56/35/34
f 45/87/79 46/86/78 58/28/28 57/31/31
f 46/86/78 47/51/47 59/25/25 58/28/28
f 47/51/47 48/50/46 60/21/21 59/25/25
f 48/50/46 49/96/86 61/10/10 60/21/21
f 49/96/86 50/76/69 62/11/11 61/10/10
f 51/3/3 62/11/11 50/76/69 39/75/68
f 38/94/84 73/78/71 74/74/67
f 31/15/15 19/14/14 18/40/35 30/67/61
f 24/17/17 12/2/2 11/1/1 23/18/18
f 38/94/84 63/73/66 64/95/85
f 84/97/64 35/19/19 34/72/65 83/98/7
f 83/98/7 34/72/65 33/48/44 82/47/5
f 37/69/53 86/6/6 75/99/50
f 75/99/50 86/6/6 76/100/54
f 76/100/54 86/6/6 77/60/56
f 77/60/56 86/6/6 78/62/58
f 41/83/76 40/77/70 73/78/71 72/84/77
f 78/62/58 86/6/6 79/101/60
f 44/91/82 43/79/72 70/82/75 69/92/83
f 79/101/60 86/6/6 80/102/62
f 50/76/69 49/96/86 64/95/85 63/73/66
f 80/102/62 86/6/6 81/103/45
f 81/103/45 86/6/6 82/5/5
f 84/71/64 86/6/6 85/70/63
f 30/65/61 18/37/35 17/32/32 29/63/59
f 29/63/59 17/32/32 16/29/29 28/61/57
f 28/61/57 16/29/29 15/26/26 27/59/55
f 27/59/55 15/26/26 14/22/22 26/55/51
f 26/55/51 14/22/22 13/23/23 25/56/52
f 85/85/63 36/16/16 35/19/19 84/97/64
f 49/96/86 48/50/46 65/53/49 64/95/85
f 35/19/19 23/18/18 22/46/43 34/72/65
