# 3ds Max Wavefront OBJ Exporter v0.97b - (c)2007 guruware
# File Created: 23.10.2015 20:04:12

mtllib pochoden.mtl

#
# object Circle
#

v  0.172489 -0.002395 -0.046218
v  0.172489 -0.002395 0.046218
v  0.126271 -0.002395 0.126271
v  0.046218 -0.002395 0.172489
v  -0.046218 -0.002395 0.172489
v  -0.126271 -0.002395 0.126271
v  -0.172489 -0.002395 0.046218
v  -0.172489 -0.002395 -0.046218
v  -0.126271 -0.002395 -0.126271
v  -0.046218 -0.002395 -0.172489
v  0.110748 -0.042867 -0.110748
v  0.151285 -0.042867 -0.040537
v  0.151285 -0.042867 0.040537
v  0.110748 -0.042867 0.110748
v  0.040537 -0.042867 0.151285
v  -0.040537 -0.042867 0.151285
v  -0.110748 -0.042867 0.110748
v  -0.151285 -0.042867 0.040537
v  -0.151285 -0.042867 -0.040537
v  -0.110748 -0.042867 -0.110748
v  -0.040537 -0.042867 -0.151285
v  0.040536 -0.042867 -0.151285
v  0.166757 4.217306 -0.166757
v  0.227794 4.217306 -0.061037
v  0.227794 4.217306 0.061037
v  0.166757 4.217306 0.166757
v  0.061037 4.217306 0.227794
v  -0.061037 4.217306 0.227794
v  -0.166757 4.217306 0.166757
v  -0.227794 4.217306 0.061037
v  -0.227794 4.217306 -0.061037
v  -0.166757 4.217306 -0.166757
v  -0.061037 4.217306 -0.227794
v  0.061037 4.217306 -0.227794
v  -0.065357 5.327772 -0.243915
v  -0.178559 5.327772 -0.178559
v  -0.243916 5.327772 -0.065357
v  -0.243915 5.327772 0.065357
v  -0.178559 5.327772 0.178559
v  -0.065357 5.327772 0.243916
v  0.065357 5.327772 0.243916
v  0.178559 5.327772 0.178559
v  0.243916 5.327772 0.065357
v  0.243916 5.327772 -0.065357
v  0.178559 5.327772 -0.178559
v  -0.084683 5.231529 -0.316040
v  -0.231358 5.231529 -0.231357
v  -0.316040 5.231529 -0.084683
v  -0.316040 5.231529 0.084683
v  -0.231357 5.231529 0.231358
v  -0.084683 5.231529 0.316040
v  0.084683 5.231529 0.316040
v  0.231358 5.231529 0.231357
v  0.316040 5.231529 0.084683
v  0.316040 5.231529 -0.084683
v  0.231358 5.231529 -0.231358
v  -0.088281 5.162785 -0.329467
v  -0.241186 5.162785 -0.241186
v  -0.329467 5.162785 -0.088280
v  -0.329466 5.162785 0.088280
v  -0.241186 5.162785 0.241186
v  -0.088280 5.162785 0.329467
v  0.088280 5.162785 0.329467
v  0.241186 5.162785 0.241186
v  0.329467 5.162785 0.088280
v  0.329467 5.162785 -0.088280
v  -0.088281 4.534822 -0.329467
v  -0.241186 4.534822 -0.241186
v  -0.329467 4.534822 -0.088280
v  -0.329466 4.534822 0.088280
v  -0.241186 4.534822 0.241186
v  -0.088280 4.534822 0.329467
v  0.088280 4.534822 0.329467
v  0.241186 4.534822 0.241186
v  0.329467 4.534822 0.088280
v  0.329467 4.534822 -0.088280
v  -0.085344 4.397333 -0.318507
v  -0.233163 4.397333 -0.233163
v  -0.318507 4.397333 -0.085344
v  -0.318507 4.397333 0.085344
v  -0.233163 4.397333 0.233163
v  -0.085344 4.397333 0.318507
v  0.085344 4.397333 0.318507
v  0.233163 4.397333 0.233163
v  0.318507 4.397333 0.085344
v  0.318507 4.397333 -0.085344
v  -0.078598 4.321714 -0.293332
v  -0.214734 4.321714 -0.214734
v  -0.293332 4.321714 -0.078598
v  -0.293332 4.321714 0.078598
v  -0.214734 4.321714 0.214734
v  -0.078598 4.321714 0.293332
v  0.078598 4.321714 0.293332
v  0.214734 4.321714 0.214734
v  0.293332 4.321714 0.078598
v  0.293332 4.321714 -0.078598
v  0.214734 4.321714 -0.214734
v  -0.065299 4.157866 -0.243700
v  -0.178401 4.157866 -0.178401
v  -0.243700 4.157866 -0.065299
v  -0.243700 4.157866 0.065299
v  -0.178401 4.157866 0.178401
v  -0.065299 4.157866 0.243700
v  0.065299 4.157866 0.243700
v  0.178401 4.157866 0.178401
v  0.243700 4.157866 0.065299
v  0.243700 4.157866 -0.065299
v  0.178401 4.157866 -0.178401
v  0.055884 4.247026 -0.208561
v  -0.055884 4.247026 -0.208561
v  -0.152677 4.247026 -0.152677
v  -0.208561 4.247026 -0.055884
v  -0.208561 4.247026 0.055884
v  -0.152677 4.247026 0.152677
v  -0.055884 4.247026 0.208561
v  0.055884 4.247026 0.208561
v  0.152677 4.247026 0.152677
v  0.208561 4.247026 0.055884
v  0.208561 4.247026 -0.055884
v  0.046218 -0.002395 -0.172489
v  0.126271 -0.002395 -0.126271
v  0.065357 5.327772 -0.243916
v  0.084683 5.231529 -0.316040
v  0.241186 5.162785 -0.241186
v  0.088280 4.534822 -0.329467
v  0.088280 5.162785 -0.329467
v  0.241186 4.534822 -0.241186
v  0.233163 4.397333 -0.233163
v  0.078598 4.321714 -0.293332
v  0.085343 4.397333 -0.318507
v  0.065299 4.157866 -0.243700
v  0.152677 4.247026 -0.152677
# 132 vertices

vn 0.936882 -0.243376 -0.251037
vn 0.549602 -0.822344 -0.147265
vn 0.402337 -0.822343 -0.402338
vn 0.685845 -0.243375 -0.685846
vn 0.936882 -0.243376 0.251037
vn 0.549603 -0.822344 0.147266
vn 0.685846 -0.243375 0.685845
vn 0.402338 -0.822343 0.402337
vn 0.251037 -0.243376 0.936882
vn 0.147265 -0.822344 0.549602
vn -0.251037 -0.243376 0.936882
vn -0.147266 -0.822344 0.549603
vn -0.685845 -0.243375 0.685846
vn -0.402337 -0.822343 0.402338
vn -0.936882 -0.243376 0.251037
vn -0.549603 -0.822344 0.147265
vn -0.936883 -0.243376 -0.251036
vn -0.549603 -0.822344 -0.147265
vn -0.685846 -0.243376 -0.685845
vn -0.402337 -0.822344 -0.402337
vn -0.251037 -0.243376 -0.936882
vn -0.147266 -0.822344 -0.549603
vn 0.251037 -0.243376 -0.936882
vn 0.147265 -0.822344 -0.549602
vn 0.707042 -0.013567 -0.707042
vn 0.965837 -0.013567 -0.258795
vn 0.965837 -0.013567 0.258795
vn 0.707042 -0.013567 0.707042
vn 0.258795 -0.013567 0.965837
vn -0.258795 -0.013567 0.965837
vn -0.707041 -0.013567 0.707042
vn -0.965837 -0.013567 0.258795
vn -0.965837 -0.013567 -0.258795
vn -0.707042 -0.013567 -0.707041
vn -0.258797 -0.013567 -0.965836
vn 0.258794 -0.013567 -0.965837
vn 0.350118 0.868812 -0.350119
vn 0.350118 0.868812 0.350118
vn 0.478271 0.868812 0.128152
vn 0.478271 0.868812 -0.128152
vn 0.128152 0.868812 -0.478271
vn 0.128152 0.868812 0.478271
vn -0.128153 0.868812 -0.478270
vn -0.128152 0.868812 0.478271
vn -0.350119 0.868812 -0.350119
vn -0.350119 0.868812 0.350119
vn -0.478271 0.868812 -0.128152
vn -0.478270 0.868812 0.128153
vn 0.647160 0.402948 -0.647160
vn 0.236876 0.402949 -0.884037
vn -0.236878 0.402950 -0.884036
vn -0.647160 0.402949 -0.647160
vn -0.884037 0.402948 -0.236876
vn -0.884037 0.402948 0.236878
vn -0.647160 0.402948 0.647160
vn -0.236877 0.402948 0.884037
vn 0.236877 0.402949 0.884037
vn 0.647160 0.402949 0.647160
vn 0.884037 0.402948 0.236877
vn 0.884037 0.402948 -0.236877
vn 0.703703 0.097999 -0.703703
vn 0.257573 0.097999 -0.961276
vn -0.257574 0.098000 -0.961276
vn -0.703704 0.098000 -0.703702
vn -0.961277 0.097999 -0.257573
vn -0.961276 0.097999 0.257573
vn -0.703703 0.097999 0.703703
vn -0.257573 0.097999 0.961276
vn 0.257574 0.098000 0.961276
vn 0.703703 0.098000 0.703703
vn 0.961276 0.097999 0.257573
vn 0.961276 0.097999 -0.257573
vn 0.706515 -0.040881 -0.706516
vn 0.258602 -0.040881 -0.965118
vn -0.258603 -0.040882 -0.965118
vn -0.706516 -0.040882 -0.706515
vn -0.965119 -0.040882 -0.258602
vn -0.965118 -0.040881 0.258603
vn -0.706516 -0.040882 0.706515
vn -0.258602 -0.040882 0.965118
vn 0.258603 -0.040882 0.965118
vn 0.706516 -0.040881 0.706516
vn 0.965118 -0.040882 0.258603
vn 0.965118 -0.040882 -0.258603
vn 0.692583 -0.201635 -0.692584
vn 0.253502 -0.201636 -0.946086
vn -0.253503 -0.201638 -0.946086
vn -0.692583 -0.201637 -0.692583
vn -0.946086 -0.201637 -0.253503
vn -0.946086 -0.201637 0.253503
vn -0.692583 -0.201637 0.692583
vn -0.253503 -0.201636 0.946086
vn 0.253503 -0.201637 0.946086
vn 0.692583 -0.201637 0.692583
vn 0.946086 -0.201636 0.253503
vn 0.946086 -0.201637 -0.253503
vn 0.671516 -0.313260 -0.671516
vn 0.245791 -0.313260 -0.917308
vn -0.245793 -0.313261 -0.917308
vn -0.671516 -0.313261 -0.671516
vn -0.917308 -0.313260 -0.245791
vn -0.917308 -0.313261 0.245792
vn -0.671516 -0.313261 0.671516
vn -0.245792 -0.313261 0.917308
vn 0.245792 -0.313261 0.917308
vn 0.671516 -0.313261 0.671516
vn 0.917308 -0.313261 0.245792
vn 0.917308 -0.313261 -0.245791
vn 0.674708 -0.299228 -0.674708
vn 0.246959 -0.299227 -0.921669
vn -0.246962 -0.299227 -0.921669
vn -0.674709 -0.299228 -0.674708
vn -0.921669 -0.299228 -0.246960
vn -0.921669 -0.299227 0.246961
vn -0.674708 -0.299227 0.674709
vn -0.246960 -0.299228 0.921669
vn 0.246961 -0.299228 0.921669
vn 0.674709 -0.299227 0.674708
vn 0.921669 -0.299228 0.246960
vn 0.921669 -0.299228 -0.246960
vn -0.465177 -0.366664 0.805710
vn 0.000001 -0.366664 0.930353
vn 0.465178 -0.366663 0.805710
vn 0.805710 -0.366663 0.465177
vn 0.930353 -0.366664 -0.000001
vn 0.805710 -0.366665 -0.465176
vn 0.465176 -0.366664 -0.805710
vn 0.000000 -0.366663 -0.930354
vn -0.465177 -0.366664 -0.805709
vn -0.805710 -0.366664 -0.465177
vn -0.930354 -0.366663 -0.000000
vn -0.805710 -0.366664 0.465177
# 132 vertex normals

vt 0.165649 0.053618 0.000000
vt 0.165735 0.044103 0.000000
vt 0.184131 0.044195 0.000000
vt 0.184122 0.053711 0.000000
vt 0.147178 0.053376 0.000000
vt 0.147340 0.043863 0.000000
vt 0.128709 0.052988 0.000000
vt 0.128950 0.043481 0.000000
vt 0.110230 0.052452 0.000000
vt 0.110589 0.042973 0.000000
vt 0.091667 0.051723 0.000000
vt 0.092415 0.042321 0.000000
vt 0.072774 0.050373 0.000000
vt 0.075041 0.040731 0.000000
vt 0.276577 0.051959 0.000000
vt 0.275857 0.042553 0.000000
vt 0.293236 0.041017 0.000000
vt 0.295474 0.050667 0.000000
vt 0.258012 0.052633 0.000000
vt 0.257680 0.043153 0.000000
vt 0.239534 0.053119 0.000000
vt 0.239318 0.043610 0.000000
vt 0.221065 0.053460 0.000000
vt 0.220926 0.043945 0.000000
vt 0.202594 0.053658 0.000000
vt 0.202529 0.044141 0.000000
vt 0.830510 0.081633 0.000000
vt 0.839539 0.054274 0.000000
vt 0.861038 0.035095 0.000000
vt 0.889247 0.029235 0.000000
vt 0.836370 0.109841 0.000000
vt 0.916606 0.038264 0.000000
vt 0.855549 0.131340 0.000000
vt 0.935785 0.059763 0.000000
vt 0.941645 0.087972 0.000000
vt 0.882908 0.140370 0.000000
vt 0.932615 0.115331 0.000000
vt 0.911116 0.134510 0.000000
vt 0.182688 0.932085 0.000000
vt 0.157261 0.931952 0.000000
vt 0.131836 0.931616 0.000000
vt 0.106416 0.931074 0.000000
vt 0.081002 0.930307 0.000000
vt 0.055600 0.929247 0.000000
vt 0.030214 0.928015 0.000000
vt 0.335177 0.928446 0.000000
vt 0.309787 0.929596 0.000000
vt 0.284382 0.930580 0.000000
vt 0.258965 0.931275 0.000000
vt 0.233542 0.931747 0.000000
vt 0.208116 0.932017 0.000000
vt 0.926018 0.667422 0.000000
vt 0.997313 0.592540 0.000000
vt 0.988418 0.629324 0.000000
vt 0.962322 0.656733 0.000000
vt 0.889233 0.658527 0.000000
vt 0.986624 0.556235 0.000000
vt 0.861824 0.632431 0.000000
vt 0.959215 0.530140 0.000000
vt 0.851135 0.596127 0.000000
vt 0.922431 0.521244 0.000000
vt 0.860031 0.559342 0.000000
vt 0.886127 0.531933 0.000000
vt 0.410000 0.504566 0.000000
vt 0.409183 0.568632 0.000000
vt 0.360193 0.570842 0.000000
vt 0.361247 0.507391 0.000000
vt 0.408094 0.632709 0.000000
vt 0.359735 0.634213 0.000000
vt 0.407587 0.697209 0.000000
vt 0.360244 0.696975 0.000000
vt 0.406441 0.762744 0.000000
vt 0.360637 0.758490 0.000000
vt 0.401317 0.829905 0.000000
vt 0.356901 0.817855 0.000000
vt 0.386737 0.897733 0.000000
vt 0.341417 0.871362 0.000000
vt 0.417773 0.188428 0.000000
vt 0.367210 0.199826 0.000000
vt 0.356727 0.146188 0.000000
vt 0.406018 0.125336 0.000000
vt 0.419683 0.251378 0.000000
vt 0.369614 0.257824 0.000000
vt 0.417933 0.314338 0.000000
vt 0.368336 0.318297 0.000000
vt 0.414909 0.377520 0.000000
vt 0.365678 0.380374 0.000000
vt 0.411670 0.440966 0.000000
vt 0.363019 0.443520 0.000000
vt 0.437133 0.506017 0.000000
vt 0.435674 0.570559 0.000000
vt 0.434226 0.635422 0.000000
vt 0.432997 0.700876 0.000000
vt 0.431230 0.767467 0.000000
vt 0.427198 0.836087 0.000000
vt 0.422402 0.909585 0.000000
vt 0.446951 0.184661 0.000000
vt 0.441503 0.119940 0.000000
vt 0.447168 0.249077 0.000000
vt 0.445016 0.313457 0.000000
vt 0.442107 0.377713 0.000000
vt 0.439186 0.441850 0.000000
vt 0.688583 0.516313 0.000000
vt 0.686357 0.581444 0.000000
vt 0.684630 0.646653 0.000000
vt 0.683284 0.712227 0.000000
vt 0.682281 0.778431 0.000000
vt 0.681792 0.844997 0.000000
vt 0.684650 0.909503 0.000000
vt 0.701944 0.181831 0.000000
vt 0.703178 0.109801 0.000000
vt 0.698694 0.252178 0.000000
vt 0.695718 0.320518 0.000000
vt 0.693164 0.387081 0.000000
vt 0.690896 0.452245 0.000000
vt 0.742412 0.518197 0.000000
vt 0.739623 0.582339 0.000000
vt 0.737945 0.646445 0.000000
vt 0.736878 0.710616 0.000000
vt 0.736944 0.774919 0.000000
vt 0.739263 0.839290 0.000000
vt 0.748076 0.903368 0.000000
vt 0.757670 0.189256 0.000000
vt 0.767407 0.120283 0.000000
vt 0.751468 0.257395 0.000000
vt 0.748128 0.324269 0.000000
vt 0.746244 0.389854 0.000000
vt 0.744873 0.454413 0.000000
vt 0.773800 0.518633 0.000000
vt 0.770864 0.581811 0.000000
vt 0.769238 0.644807 0.000000
vt 0.768375 0.707596 0.000000
vt 0.769074 0.770067 0.000000
vt 0.772903 0.832049 0.000000
vt 0.783592 0.892959 0.000000
vt 0.788510 0.198198 0.000000
vt 0.803809 0.134848 0.000000
vt 0.781058 0.263211 0.000000
vt 0.778015 0.327920 0.000000
vt 0.776839 0.391982 0.000000
vt 0.776133 0.455563 0.000000
vt 0.843130 0.517120 0.000000
vt 0.840677 0.579245 0.000000
vt 0.838721 0.640840 0.000000
vt 0.837794 0.701621 0.000000
vt 0.838539 0.761078 0.000000
vt 0.842228 0.818451 0.000000
vt 0.851201 0.872532 0.000000
vt 0.855130 0.215137 0.000000
vt 0.869459 0.163083 0.000000
vt 0.848664 0.271365 0.000000
vt 0.846399 0.330435 0.000000
vt 0.845633 0.391477 0.000000
vt 0.844892 0.453857 0.000000
vt 0.536846 0.633301 1.274185
vt 0.617031 0.661696 1.274185
vt 0.618890 0.638074 1.290786
vt 0.550267 0.613774 1.290786
vt 0.502989 0.558418 1.290786
vt 0.481603 0.568618 1.274185
vt 0.489723 0.486839 1.290786
vt 0.466101 0.484980 1.274185
vt 0.514023 0.418217 1.290786
vt 0.494496 0.404796 1.274185
vt 0.569379 0.370938 1.290786
vt 0.559178 0.349552 1.274185
vt 0.640958 0.357672 1.290786
vt 0.642817 0.334050 1.274185
vt 0.709580 0.381972 1.290786
vt 0.723001 0.362445 1.274185
vt 0.756859 0.437328 1.290786
vt 0.778245 0.427127 1.274185
vt 0.770125 0.508907 1.290786
vt 0.793747 0.510766 1.274185
vt 0.745825 0.577529 1.290786
vt 0.765352 0.590950 1.274185
vt 0.690469 0.624808 1.290786
vt 0.700669 0.646194 1.274185
# 178 texture coords

g Circle
usemtl 01___Default
s 1
f -132/-178/-132 -121/-177/-131 -122/-176/-130 -12/-175/-129 
f -131/-174/-128 -120/-173/-127 -121/-177/-131 -132/-178/-132 
f -130/-172/-126 -119/-171/-125 -120/-173/-127 -131/-174/-128 
f -129/-170/-124 -118/-169/-123 -119/-171/-125 -130/-172/-126 
f -128/-168/-122 -117/-167/-121 -118/-169/-123 -129/-170/-124 
f -127/-166/-120 -116/-165/-119 -117/-167/-121 -128/-168/-122 
f -126/-164/-118 -115/-163/-117 -116/-162/-119 -127/-161/-120 
f -125/-160/-116 -114/-159/-115 -115/-163/-117 -126/-164/-118 
f -124/-158/-114 -113/-157/-113 -114/-159/-115 -125/-160/-116 
f -123/-156/-112 -112/-155/-111 -113/-157/-113 -124/-158/-114 
f -13/-154/-110 -111/-153/-109 -112/-155/-111 -123/-156/-112 
f -13/-154/-110 -12/-175/-129 -122/-176/-130 -111/-153/-109 
f -116/-152/-119 -115/-151/-117 -114/-150/-115 -113/-149/-113 
f -117/-148/-121 -116/-152/-119 -113/-149/-113 -112/-147/-111 
f -118/-146/-123 -117/-148/-121 -112/-147/-111 -111/-145/-109 
f -122/-144/-130 -119/-143/-125 -118/-146/-123 -111/-145/-109 
f -121/-142/-131 -120/-141/-127 -119/-143/-125 -122/-144/-130 
f -12/-175/-129 -110/-140/-108 -109/-139/-107 -132/-178/-132 
f -132/-178/-132 -109/-139/-107 -108/-138/-106 -131/-174/-128 
f -131/-174/-128 -108/-138/-106 -107/-137/-105 -130/-172/-126 
f -130/-172/-126 -107/-137/-105 -106/-136/-104 -129/-170/-124 
f -129/-170/-124 -106/-136/-104 -105/-135/-103 -128/-168/-122 
f -128/-168/-122 -105/-135/-103 -104/-134/-102 -127/-166/-120 
f -127/-161/-120 -104/-133/-102 -103/-132/-101 -126/-164/-118 
f -126/-164/-118 -103/-132/-101 -102/-131/-100 -125/-160/-116 
f -125/-160/-116 -102/-131/-100 -101/-130/-99 -124/-158/-114 
f -124/-158/-114 -101/-130/-99 -100/-129/-98 -123/-156/-112 
f -123/-156/-112 -100/-129/-98 -99/-128/-97 -13/-154/-110 
f -12/-175/-129 -13/-154/-110 -99/-128/-97 -110/-140/-108 
s 2
f -88/-127/-96 -91/-126/-95 -90/-125/-94 -89/-124/-93 
f -88/-127/-96 -11/-123/-92 -92/-122/-91 -91/-126/-95 
f -92/-122/-91 -11/-123/-92 -98/-121/-90 -93/-120/-89 
f -93/-120/-89 -98/-121/-90 -97/-119/-88 -94/-118/-87 
f -94/-118/-87 -97/-119/-88 -96/-117/-86 -95/-116/-85 
f -77/-115/-84 -10/-114/-83 -11/-113/-92 -88/-112/-96 
f -87/-111/-82 -98/-110/-90 -11/-113/-92 -10/-114/-83 
f -86/-109/-81 -97/-108/-88 -98/-110/-90 -87/-111/-82 
f -85/-107/-80 -96/-106/-86 -97/-108/-88 -86/-109/-81 
f -84/-105/-79 -95/-104/-85 -96/-106/-86 -85/-107/-80 
f -83/-103/-78 -94/-102/-87 -95/-104/-85 -84/-105/-79 
f -82/-101/-77 -93/-100/-89 -94/-99/-87 -83/-98/-78 
f -81/-97/-76 -92/-96/-91 -93/-100/-89 -82/-101/-77 
f -80/-95/-75 -91/-94/-95 -92/-96/-91 -81/-97/-76 
f -79/-93/-74 -90/-92/-94 -91/-94/-95 -80/-95/-75 
f -78/-91/-73 -89/-90/-93 -90/-92/-94 -79/-93/-74 
f -77/-115/-84 -88/-112/-96 -89/-90/-93 -78/-91/-73 
f -9/-89/-72 -7/-88/-71 -10/-114/-83 -77/-115/-84 
f -76/-87/-70 -87/-111/-82 -10/-114/-83 -7/-88/-71 
f -75/-86/-69 -86/-109/-81 -87/-111/-82 -76/-87/-70 
f -74/-85/-68 -85/-107/-80 -86/-109/-81 -75/-86/-69 
f -73/-84/-67 -84/-105/-79 -85/-107/-80 -74/-85/-68 
f -72/-83/-66 -83/-103/-78 -84/-105/-79 -73/-84/-67 
f -71/-82/-65 -82/-101/-77 -83/-98/-78 -72/-81/-66 
f -70/-80/-64 -81/-97/-76 -82/-101/-77 -71/-82/-65 
f -69/-79/-63 -80/-95/-75 -81/-97/-76 -70/-80/-64 
f -68/-78/-62 -79/-93/-74 -80/-95/-75 -69/-79/-63 
f -67/-77/-61 -78/-91/-73 -79/-93/-74 -68/-78/-62 
f -9/-89/-72 -77/-115/-84 -78/-91/-73 -67/-77/-61 
f -6/-76/-60 -8/-75/-59 -7/-88/-71 -9/-89/-72 
f -66/-74/-58 -76/-87/-70 -7/-88/-71 -8/-75/-59 
f -65/-73/-57 -75/-86/-69 -76/-87/-70 -66/-74/-58 
f -64/-72/-56 -74/-85/-68 -75/-86/-69 -65/-73/-57 
f -63/-71/-55 -73/-84/-67 -74/-85/-68 -64/-72/-56 
f -62/-70/-54 -72/-83/-66 -73/-84/-67 -63/-71/-55 
f -61/-69/-53 -71/-82/-65 -72/-81/-66 -62/-68/-54 
f -60/-67/-52 -70/-80/-64 -71/-82/-65 -61/-69/-53 
f -59/-66/-51 -69/-79/-63 -70/-80/-64 -60/-67/-52 
f -58/-65/-50 -68/-78/-62 -69/-79/-63 -59/-66/-51 
f -57/-64/-49 -67/-77/-61 -68/-78/-62 -58/-65/-50 
f -6/-76/-60 -9/-89/-72 -67/-77/-61 -57/-64/-49 
f -5/-63/-48 -3/-62/-47 -8/-75/-59 -6/-76/-60 
f -56/-61/-46 -66/-74/-58 -8/-75/-59 -3/-62/-47 
f -55/-60/-45 -65/-73/-57 -66/-74/-58 -56/-61/-46 
f -54/-59/-44 -64/-72/-56 -65/-73/-57 -55/-60/-45 
f -53/-58/-43 -63/-71/-55 -64/-72/-56 -54/-59/-44 
f -52/-57/-42 -62/-70/-54 -63/-71/-55 -53/-58/-43 
f -51/-56/-41 -61/-69/-53 -62/-68/-54 -52/-55/-42 
f -50/-54/-40 -60/-67/-52 -61/-69/-53 -51/-56/-41 
f -49/-53/-39 -59/-66/-51 -60/-67/-52 -50/-54/-40 
f -48/-52/-38 -58/-65/-50 -59/-66/-51 -49/-53/-39 
f -47/-51/-37 -57/-64/-49 -58/-65/-50 -48/-52/-38 
f -5/-63/-48 -6/-76/-60 -57/-64/-49 -47/-51/-37 
f -36/-50/-36 -4/-49/-35 -3/-62/-47 -5/-63/-48 
f -46/-48/-34 -56/-61/-46 -3/-62/-47 -4/-49/-35 
f -45/-47/-33 -55/-60/-45 -56/-61/-46 -46/-48/-34 
f -44/-46/-32 -54/-59/-44 -55/-60/-45 -45/-47/-33 
f -43/-45/-31 -53/-58/-43 -54/-59/-44 -44/-46/-32 
f -42/-44/-30 -52/-57/-42 -53/-58/-43 -43/-45/-31 
f -41/-43/-29 -51/-56/-41 -52/-55/-42 -42/-42/-30 
f -40/-41/-28 -50/-54/-40 -51/-56/-41 -41/-43/-29 
f -39/-40/-27 -49/-53/-39 -50/-54/-40 -40/-41/-28 
f -38/-39/-26 -48/-52/-38 -49/-53/-39 -39/-40/-27 
f -37/-38/-25 -47/-51/-37 -48/-52/-38 -38/-39/-26 
f -36/-50/-36 -5/-63/-48 -47/-51/-37 -37/-38/-25 
f -25/-37/-24 -2/-36/-23 -4/-49/-35 -36/-50/-36 
f -35/-35/-22 -46/-48/-34 -4/-49/-35 -2/-36/-23 
f -34/-34/-21 -45/-47/-33 -46/-48/-34 -35/-35/-22 
f -33/-33/-20 -44/-46/-32 -45/-47/-33 -34/-34/-21 
f -32/-32/-19 -43/-45/-31 -44/-46/-32 -33/-33/-20 
f -31/-31/-18 -42/-44/-30 -43/-45/-31 -32/-32/-19 
f -30/-30/-17 -41/-43/-29 -42/-42/-30 -31/-29/-18 
f -29/-28/-16 -40/-41/-28 -41/-43/-29 -30/-30/-17 
f -28/-27/-15 -39/-40/-27 -40/-41/-28 -29/-28/-16 
f -27/-26/-14 -38/-39/-26 -39/-40/-27 -28/-27/-15 
f -26/-25/-13 -37/-38/-25 -38/-39/-26 -27/-26/-14 
f -25/-37/-24 -36/-50/-36 -37/-38/-25 -26/-25/-13 
s off
f -2/-24/-12 -25/-23/-12 -1/-22/-12 -24/-21/-12 
f -2/-24/-11 -24/-21/-11 -23/-20/-11 -35/-19/-11 
f -35/-19/-10 -23/-20/-10 -22/-18/-10 -34/-17/-10 
f -34/-17/-9 -22/-18/-9 -21/-16/-9 -33/-15/-9 
f -33/-15/-8 -21/-16/-8 -20/-14/-8 -32/-13/-8 
f -32/-13/-7 -20/-14/-7 -19/-12/-7 -31/-11/-7 
f -31/-11/-6 -19/-12/-6 -18/-10/-6 -30/-9/-6 
f -30/-9/-5 -18/-10/-5 -17/-8/-5 -29/-7/-5 
f -29/-7/-4 -17/-8/-4 -16/-6/-4 -28/-5/-4 
f -28/-5/-3 -16/-6/-3 -15/-4/-3 -27/-3/-3 
f -27/-3/-2 -15/-4/-2 -14/-2/-2 -26/-1/-2 
f -26/-1/-1 -14/-2/-1 -1/-22/-1 -25/-23/-1 
# 118 polygons

