# 3ds Max Wavefront OBJ Exporter v0.97b - (c)2007 guruware
# File Created: 23.10.2015 19:13:35

mtllib palisada_c.mtl

#
# object UCX_palisada_UCX
#

v  -8.068542 115.550964 7.723053
v  232.446320 115.550964 7.723053
v  -8.068542 115.550964 -6.083038
v  232.446320 115.550964 -6.083038
v  -8.068542 222.224319 7.723053
v  232.446320 222.224319 7.723053
v  -8.068542 222.224319 -6.083038
v  232.446320 222.224319 -6.083038
# 8 vertices

vn 0.000000 -1.000000 -0.000000
vn 0.000000 1.000000 -0.000000
vn 0.000000 0.000000 1.000000
vn 1.000000 0.000000 -0.000000
vn 0.000000 0.000000 -1.000000
vn -1.000000 0.000000 -0.000000
# 6 vertex normals

vt 1.000000 0.000000 0.000000
vt 1.000000 1.000000 0.000000
vt 0.000000 1.000000 0.000000
vt 0.000000 0.000000 0.000000
# 4 texture coords

g UCX_palisada_UCX
usemtl wire_153228214
s 2
f -8/-4/-6 -6/-3/-6 -5/-2/-6 -7/-1/-6 
s 4
f -4/-1/-5 -3/-4/-5 -1/-3/-5 -2/-2/-5 
s 8
f -8/-1/-4 -7/-4/-4 -3/-3/-4 -4/-2/-4 
s 16
f -7/-1/-3 -5/-4/-3 -1/-3/-3 -3/-2/-3 
s 32
f -5/-1/-2 -6/-4/-2 -2/-3/-2 -1/-2/-2 
s 64
f -6/-1/-1 -8/-4/-1 -4/-3/-1 -2/-2/-1 
# 6 polygons

