# 3ds Max Wavefront OBJ Exporter v0.97b - (c)2007 guruware
# File Created: 24.10.2015 22:36:52

mtllib bridge_c.mtl

#
# object collision
#

v  47.098564 -92.813950 -1.103516
v  51.457832 -92.813950 -1.103516
v  47.098564 -92.813950 -1166.161743
v  51.457832 -92.813950 -1166.161743
v  47.098564 39.691650 -1.103516
v  51.457832 39.691650 -1.103516
v  47.098564 79.504883 -1166.161743
v  51.457832 79.504883 -1166.161743
v  -1.044798 -92.813950 -1.103516
v  4.815371 -92.813950 -1.103516
v  -1.044798 -92.813950 -1166.161743
v  4.815371 -92.813950 -1166.161743
v  -1.044798 39.691650 -1.103516
v  4.815371 39.691650 -1.103516
v  -1.044798 79.504883 -1166.161743
v  4.815371 79.504883 -1166.161743
v  3.175545 -1.036076 -0.316101
v  52.302979 -1.036076 -0.316101
v  3.175545 -23.112698 -99.992416
v  52.302979 -23.112698 -99.992416
v  3.175545 2.668484 -0.316101
v  52.302979 2.668484 -0.316101
v  3.175545 -19.408138 -99.992416
v  52.302979 -19.408138 -99.992416
v  3.175545 -40.880428 -165.896881
v  52.302979 -40.880428 -165.896881
v  3.175545 -37.175869 -165.896881
v  52.302979 -37.175869 -165.896881
v  3.175545 -49.838032 -225.252014
v  52.302979 -49.838032 -225.252014
v  3.175545 -46.133465 -225.252014
v  52.302979 -46.133465 -225.252014
v  3.175545 -68.353897 -339.263367
v  52.302979 -68.353897 -339.263367
v  3.175545 -64.649338 -339.263367
v  52.302979 -64.649338 -339.263367
v  3.175545 -74.493637 -495.017456
v  52.302979 -74.493637 -495.017456
v  3.175545 -70.789078 -495.017456
v  52.302979 -70.789078 -495.017456
v  3.175545 -75.953156 -530.836060
v  52.302979 -75.953156 -530.836060
v  3.175545 -72.248596 -530.836060
v  52.302979 -72.248596 -530.836060
v  3.175545 -68.428619 -645.209045
v  52.302979 -68.428619 -645.209045
v  3.175545 -64.724060 -645.209045
v  52.302979 -64.724060 -645.209045
v  3.175545 -63.777714 -709.020203
v  52.302979 -63.777714 -709.020203
v  3.175545 -60.073154 -709.020203
v  52.302979 -60.073154 -709.020203
v  3.175545 -42.596149 -854.841614
v  52.302979 -42.596149 -854.841614
v  3.175545 -38.891590 -854.841614
v  52.302979 -38.891590 -854.841614
v  3.175545 -19.895592 -955.409363
v  52.302979 -19.895592 -955.409363
v  3.175545 -16.191032 -955.409363
v  52.302979 -16.191032 -955.409363
v  3.175545 6.728683 -1048.842285
v  52.302979 6.728683 -1048.842285
v  3.175545 10.433243 -1048.842285
v  52.302979 10.433243 -1048.842285
v  3.175545 46.083199 -1153.134644
v  52.302979 46.083199 -1153.134644
v  3.175545 49.787758 -1153.134644
v  52.302979 49.787758 -1153.134644
# 68 vertices

vn 0.000000 -1.000000 -0.000000
vn 0.000000 0.999417 0.034153
vn 0.000000 0.000000 1.000000
vn 1.000000 0.000000 -0.000000
vn 0.000000 0.000000 -1.000000
vn -1.000000 0.000000 -0.000000
vn 0.000000 -0.976340 0.216243
vn 0.000000 0.976340 -0.216243
vn 0.000000 -0.965527 0.260304
vn 0.000000 0.965527 -0.260304
vn 0.000000 -0.988803 0.149226
vn 0.000000 0.988803 -0.149226
vn 0.000000 -0.987068 0.160303
vn 0.000000 0.987068 -0.160303
vn 0.000000 -0.999224 0.039389
vn 0.000000 0.999224 -0.039389
vn 0.000000 -0.999171 0.040714
vn 0.000000 0.999171 -0.040714
vn 0.000000 -0.997843 -0.065648
vn 0.000000 0.997843 0.065648
vn 0.000000 -0.997354 -0.072693
vn 0.000000 0.997354 0.072693
vn 0.000000 -0.989614 -0.143748
vn 0.000000 0.989614 0.143748
vn 0.000000 -0.975458 -0.220184
vn 0.000000 0.975458 0.220184
vn 0.000000 -0.961716 -0.274047
vn 0.000000 0.961716 0.274047
vn 0.000000 -0.935605 -0.353049
vn 0.000000 0.935605 0.353049
# 30 vertex normals

vt 1.000000 0.000000 0.000000
vt 1.000000 1.000000 0.000000
vt 0.000000 1.000000 0.000000
vt 0.000000 0.000000 0.000000
# 4 texture coords

g collision
usemtl wire_204204204
s 2
f -68/-4/-30 -66/-3/-30 -65/-2/-30 -67/-1/-30 
s 4
f -64/-1/-29 -63/-4/-29 -61/-3/-29 -62/-2/-29 
s 8
f -68/-1/-28 -67/-4/-28 -63/-3/-28 -64/-2/-28 
s 16
f -67/-1/-27 -65/-4/-27 -61/-3/-27 -63/-2/-27 
s 32
f -65/-1/-26 -66/-4/-26 -62/-3/-26 -61/-2/-26 
s 64
f -66/-1/-25 -68/-4/-25 -64/-3/-25 -62/-2/-25 
s 2
f -60/-4/-30 -58/-3/-30 -57/-2/-30 -59/-1/-30 
s 4
f -56/-1/-29 -55/-4/-29 -53/-3/-29 -54/-2/-29 
s 8
f -60/-1/-28 -59/-4/-28 -55/-3/-28 -56/-2/-28 
s 16
f -59/-1/-27 -57/-4/-27 -53/-3/-27 -55/-2/-27 
s 32
f -57/-1/-26 -58/-4/-26 -54/-3/-26 -53/-2/-26 
s 64
f -58/-1/-25 -60/-4/-25 -56/-3/-25 -54/-2/-25 
s 2
f -52/-4/-24 -50/-3/-24 -49/-2/-24 -51/-1/-24 
s 4
f -48/-1/-23 -47/-4/-23 -45/-3/-23 -46/-2/-23 
s 8
f -52/-1/-28 -51/-4/-28 -47/-3/-28 -48/-2/-28 
s 16
f -51/-1/-27 -49/-4/-27 -45/-3/-27 -47/-2/-27 
s 64
f -50/-1/-25 -52/-4/-25 -48/-3/-25 -46/-2/-25 
s off
f -49/-2/-22 -50/-3/-22 -44/-3/-22 -43/-2/-22 
f -46/-2/-21 -45/-3/-21 -41/-3/-21 -42/-2/-21 
f -45/-3/-27 -49/-4/-27 -43/-4/-27 -41/-3/-27 
f -50/-1/-25 -46/-2/-25 -42/-2/-25 -44/-1/-25 
f -43/-2/-20 -44/-3/-20 -40/-3/-20 -39/-2/-20 
f -42/-2/-19 -41/-3/-19 -37/-3/-19 -38/-2/-19 
f -41/-3/-27 -43/-4/-27 -39/-4/-27 -37/-3/-27 
f -44/-1/-25 -42/-2/-25 -38/-2/-25 -40/-1/-25 
f -39/-2/-18 -40/-3/-18 -36/-3/-18 -35/-2/-18 
f -38/-2/-17 -37/-3/-17 -33/-3/-17 -34/-2/-17 
f -37/-3/-27 -39/-4/-27 -35/-4/-27 -33/-3/-27 
f -40/-1/-25 -38/-2/-25 -34/-2/-25 -36/-1/-25 
f -35/-2/-16 -36/-3/-16 -32/-3/-16 -31/-2/-16 
f -34/-2/-15 -33/-3/-15 -29/-3/-15 -30/-2/-15 
f -33/-3/-27 -35/-4/-27 -31/-4/-27 -29/-3/-27 
f -36/-1/-25 -34/-2/-25 -30/-2/-25 -32/-1/-25 
f -31/-2/-14 -32/-3/-14 -28/-3/-14 -27/-2/-14 
f -30/-2/-13 -29/-3/-13 -25/-3/-13 -26/-2/-13 
f -29/-3/-27 -31/-4/-27 -27/-4/-27 -25/-3/-27 
f -32/-1/-25 -30/-2/-25 -26/-2/-25 -28/-1/-25 
f -27/-2/-12 -28/-3/-12 -24/-3/-12 -23/-2/-12 
f -26/-2/-11 -25/-3/-11 -21/-3/-11 -22/-2/-11 
f -25/-3/-27 -27/-4/-27 -23/-4/-27 -21/-3/-27 
f -28/-1/-25 -26/-2/-25 -22/-2/-25 -24/-1/-25 
f -23/-2/-10 -24/-3/-10 -20/-3/-10 -19/-2/-10 
f -22/-2/-9 -21/-3/-9 -17/-3/-9 -18/-2/-9 
f -21/-3/-27 -23/-4/-27 -19/-4/-27 -17/-3/-27 
f -24/-1/-25 -22/-2/-25 -18/-2/-25 -20/-1/-25 
f -19/-2/-8 -20/-3/-8 -16/-3/-8 -15/-2/-8 
f -18/-2/-7 -17/-3/-7 -13/-3/-7 -14/-2/-7 
f -17/-3/-27 -19/-4/-27 -15/-4/-27 -13/-3/-27 
f -20/-1/-25 -18/-2/-25 -14/-2/-25 -16/-1/-25 
f -15/-2/-6 -16/-3/-6 -12/-3/-6 -11/-2/-6 
f -14/-2/-5 -13/-3/-5 -9/-3/-5 -10/-2/-5 
f -13/-3/-27 -15/-4/-27 -11/-4/-27 -9/-3/-27 
f -16/-1/-25 -14/-2/-25 -10/-2/-25 -12/-1/-25 
f -11/-2/-4 -12/-3/-4 -8/-3/-4 -7/-2/-4 
f -10/-2/-3 -9/-3/-3 -5/-3/-3 -6/-2/-3 
f -9/-3/-27 -11/-4/-27 -7/-4/-27 -5/-3/-27 
f -12/-1/-25 -10/-2/-25 -6/-2/-25 -8/-1/-25 
f -7/-2/-2 -8/-3/-2 -4/-3/-2 -3/-2/-2 
f -6/-2/-1 -5/-3/-1 -1/-3/-1 -2/-2/-1 
f -5/-3/-27 -7/-4/-27 -3/-4/-27 -1/-3/-27 
f -8/-1/-25 -6/-2/-25 -2/-2/-25 -4/-1/-25 
f -2/-2/-26 -1/-3/-26 -3/-2/-26 -4/-3/-26 
# 62 polygons

